<svg width="48" height="48" viewBox="0 0 48 48" fill="none" xmlns="http://www.w3.org/2000/svg">
<path d="M16.5187 13.6459C16.41 13.9805 16.2835 14.3028 16.1412 14.6074C14.9215 17.2207 12.4965 18.415 9.69502 18.3293C7.76014 18.27 5.62486 17.5951 4.41862 15.9917C2.6875 13.6903 2.9431 10.0154 4.33534 7.61976C6.05446 4.66128 9.81118 3.8304 12.9084 4.90608C16.6344 6.20016 17.6625 10.1275 16.5187 13.6459Z" fill="#FD4256"/>
<path d="M7.31013 12.4164C7.31013 12.4164 7.30125 13.4213 7.48557 13.8852C7.63125 14.2522 7.86453 14.6057 8.18037 14.843C8.33349 14.958 8.49909 15.0317 8.67837 15.095C8.75205 15.121 8.89485 15.1762 9.01173 15.2218C9.12333 15.2654 9.19725 15.3722 9.19869 15.4922L9.20901 16.4263C9.20901 16.4263 9.19125 16.5826 9.33813 16.6025C9.55581 16.6318 10.9029 16.6253 10.9029 16.6253C10.9029 16.6253 11.04 16.6368 11.04 16.4311C11.04 16.2257 10.9802 15.6595 10.9802 15.6583C10.972 15.5287 10.95 15.3622 11.0392 15.2462C11.0865 15.1848 11.1763 15.1598 11.2428 15.1243C11.334 15.0754 11.4225 15.0221 11.5089 14.9652C11.855 14.7379 12.1946 14.4516 12.4144 14.0959C12.4183 14.0897 12.4221 14.0832 12.426 14.077C12.8188 13.4203 12.8584 12.258 12.4108 11.6215C11.8814 10.8684 11.1679 10.405 10.5626 10.0394C9.95733 9.67392 9.83973 9.20256 9.93117 8.6772C10.0226 8.15184 10.4241 7.98288 10.8002 8.04768C11.2238 8.12064 11.513 8.66064 11.4664 9.23688C11.458 9.35544 11.477 9.37632 11.7254 9.37248C11.9757 9.36864 12.8666 9.35904 12.8752 9.3588C13.1112 9.35616 12.8544 8.48424 12.8071 8.35296C12.6148 7.81968 12.2308 7.3416 11.7597 7.02936C11.669 6.96912 11.5737 6.9108 11.476 6.8628C11.3832 6.8172 11.2464 6.786 11.2464 6.58056C11.2464 6.41664 11.2488 6.25248 11.2509 6.08856C11.2519 6.01608 11.2528 5.9436 11.2538 5.87136C11.255 5.78712 11.2802 5.55984 11.0899 5.5536C11.0244 5.55144 10.9588 5.5488 10.8933 5.54664C10.7148 5.54112 10.5362 5.53632 10.3576 5.532C10.151 5.52672 9.98853 5.52192 9.78189 5.51736C9.78189 5.51736 9.65637 5.50824 9.65637 5.63376C9.65637 5.7876 9.65517 5.94192 9.66549 6.09552C9.67989 6.30816 9.74901 6.58152 9.54333 6.70512C9.46653 6.7512 9.37677 6.76992 9.29061 6.79488C9.03909 6.86784 8.80725 6.99888 8.59797 7.15632C8.31861 7.36632 8.07189 7.63032 7.92813 7.94904C7.73541 8.37672 7.73205 8.88792 7.82013 9.34224C7.90245 9.76704 8.19453 10.1407 8.50797 10.4254C8.91093 10.7911 9.39573 11.0047 9.82965 11.3285C10.134 11.5558 10.4064 11.8418 10.548 12.1942C10.6896 12.5465 10.6831 12.972 10.4678 13.2847C10.0629 13.8725 9.07053 13.7083 8.81541 13.0618C8.74437 12.8813 8.71173 12.6732 8.72421 12.479C8.73693 12.2803 8.59389 12.2678 8.51301 12.2678C8.15925 12.2678 7.80381 12.245 7.45029 12.2316C7.34661 12.227 7.31013 12.3264 7.31013 12.4164Z" fill="#FF8A8C"/>
<path d="M42.3823 35.544C42.3895 35.4022 42.3807 35.3251 42.2424 35.323C41.2894 35.3088 40.2113 35.2891 39.5794 35.2769C38.9475 35.2646 37.357 35.2502 36.2451 35.2354C35.8601 35.2303 35.418 35.2334 35.0319 35.2109C35.0849 38.5464 35.2251 45.2158 35.2251 45.2158C35.2251 45.2158 35.7689 45.222 36.0173 45.2258C38.0962 45.2578 40.1715 45.2429 42.2467 45.2566C42.3319 45.257 42.4015 45.1886 42.4023 45.1034C42.409 44.1106 42.3912 43.2072 42.4068 42.197C42.4203 41.3297 42.4188 38.389 42.4037 37.8516C42.3819 37.0824 42.3437 36.3149 42.3823 35.544Z" fill="#FF8A8C"/>
<path d="M11.9824 45.2791C11.9839 45.1651 11.9855 45.0948 11.986 45.0725C11.993 44.7821 11.9975 44.4672 12.0031 44.1763C12.0167 43.4441 12.0079 42.7114 12.0079 41.9794C12.0079 41.3424 12.0079 40.7057 12.0076 40.069C12.0074 39.2031 12.0155 38.3563 12.0155 37.4902C12.0155 37.4647 12.0165 37.3503 12.0165 37.3503C12.0151 36.1577 12.0155 35.2479 12.0158 35.0213C12.0163 34.7851 11.9699 34.7328 11.7347 34.7328C9.64195 34.7326 7.54794 34.7213 5.45514 34.7038C5.2041 34.7016 5.15586 34.7016 4.70754 34.7302C4.44882 34.7465 4.52034 35.1703 4.52106 35.3698C4.52178 35.5743 4.52538 35.779 4.52442 35.9835C4.50954 39.6886 4.53666 39.9984 4.45338 43.2783C4.43802 43.884 4.42146 44.4075 4.43514 45.0675C4.43706 45.1608 4.51362 45.2355 4.60746 45.2357C4.6077 45.2357 4.60818 45.2357 4.60842 45.2357C5.78778 45.2395 6.9681 45.2681 8.14314 45.2712C9.39162 45.2743 10.7311 45.277 11.9824 45.2791Z" fill="#F7BC00"/>
<path d="M42.4368 19.5185C42.3545 19.4606 42.3696 19.3349 42.4632 19.2982C43.0812 19.0553 43.6203 18.4802 44.0254 17.9765C45.3327 16.3505 45.6797 14.124 44.9242 12.1786C44.4927 11.0671 43.7316 10.1054 42.7359 9.44737C41.7408 8.79073 40.5615 8.48545 39.3735 8.46889C39.2007 8.46649 39.025 8.46601 38.8524 8.48113C38.7886 8.48689 38.7068 8.49769 38.6331 8.48617C38.5385 8.47153 38.468 8.39257 38.4598 8.29729C38.4341 7.99849 38.4641 7.69201 38.4466 7.39057C38.4281 7.07329 38.396 6.75577 38.3228 6.44617C38.0244 5.18209 37.2579 4.06465 36.2612 3.24481C35.2589 2.42065 34.0143 1.87825 32.7204 1.74841C29.2517 1.40041 24.9663 4.01737 25.1024 7.84009C25.1052 7.92313 25.1045 8.00641 25.1038 8.09017C25.1031 8.15569 25.0342 8.19745 24.9759 8.16793C23.9612 7.65649 22.7333 7.54105 21.6291 7.81945C21.0276 7.97113 20.4665 8.25313 19.9452 8.58481C19.5521 8.83489 19.2226 9.14977 18.8722 9.44353C18.3392 9.89065 17.9489 10.5605 17.714 11.2085C17.2812 12.4015 17.1636 13.7822 17.406 15.031C17.5335 15.6876 17.6379 16.2866 17.9578 16.8871C18.2458 17.4276 18.6365 17.9246 19.0395 18.3694C19.2584 18.611 19.7451 18.9511 20.0412 19.1484C20.1644 19.2305 20.1783 19.4062 20.0691 19.5065L19.7549 19.7952C17.532 21.6473 17.3333 24.4702 18.878 26.9882C20.3801 29.4372 23.4968 30.2066 26.0172 28.9073C26.3249 28.7486 26.6338 28.5919 26.8872 28.349C26.9136 28.3236 26.9384 28.3058 26.9744 28.3222C27.0065 28.3368 26.9996 28.3687 27.0008 28.3949C27.0029 28.4393 27.0113 28.9694 27.0135 29.0138C27.0951 30.6065 27.0197 31.7093 27.0442 33.3024C27.0612 34.4179 27.08 35.5334 27.0939 36.649C27.1052 37.5571 27.0416 38.4655 27.0437 39.3739C27.0468 40.722 27.108 42.0701 27.0728 43.4179C27.0605 43.8838 27.0492 44.3498 27.043 44.8157C27.0413 44.9446 27.0444 45.0734 27.043 45.2318C27.4241 45.2318 27.7116 45.2326 27.7476 45.2326C30.2408 45.2369 32.7368 45.1932 35.2251 45.2158C35.1651 41.7662 35.0792 38.3148 35.0264 34.8638C35.0211 34.524 35.0177 34.1849 35.0242 33.8448C35.0405 32.9818 35.0715 32.119 35.0693 31.2516C35.0652 29.6722 35.0662 29.3945 35.0907 28.2228C35.0921 28.1503 35.1752 28.1107 35.2328 28.1549C37.9025 30.2028 41.7773 30.2863 43.8802 27.3204C44.7051 26.1571 45.0351 24.6821 44.8342 23.2745C44.6093 21.6998 43.7225 20.4202 42.4368 19.5185Z" fill="#008009"/>
<path d="M27.0429 45.2321C27.0429 45.2321 27.0439 45.1594 27.0436 45.0749C27.0434 44.9854 27.042 44.8822 27.0429 44.8159C27.0492 44.3501 27.0604 43.8838 27.0727 43.4182C27.108 42.0706 27.0468 40.7222 27.0436 39.3742C27.0415 38.4658 27.1051 37.5574 27.0938 36.6492C27.0799 35.5337 27.0612 34.4182 27.0441 33.3026C27.0336 32.6098 27.0417 32.0098 27.0477 31.4218C26.309 31.4249 25.4714 31.4549 24.7423 31.4549C23.8862 31.4642 23.0301 31.4698 22.174 31.4743C21.3446 31.4786 20.5099 31.4606 19.6821 31.5204C19.5576 31.5295 19.505 31.5737 19.5009 31.7014C19.4757 32.532 19.4995 33.3624 19.4635 34.1945C19.4212 35.1689 19.4755 36.1474 19.4707 37.1244C19.4707 37.134 19.4702 37.2 19.47 37.29C19.47 37.2986 19.47 37.3078 19.47 37.3169C19.47 37.3195 19.47 37.3222 19.47 37.3248C19.47 37.3325 19.47 37.3404 19.47 37.3483C19.47 37.3512 19.47 37.3541 19.47 37.3572C19.47 37.367 19.47 37.3769 19.47 37.3872C19.47 37.3906 19.47 37.3937 19.47 37.397C19.47 37.4059 19.47 37.4148 19.47 37.4237C19.47 37.4254 19.47 37.4268 19.47 37.4285C19.47 37.4386 19.47 37.4489 19.47 37.4592C19.47 37.4611 19.47 37.4628 19.47 37.4647C19.47 37.4878 19.47 37.5113 19.4702 37.5346C19.4702 37.5374 19.4702 37.5403 19.4702 37.543C19.4702 37.5516 19.4702 37.5605 19.4702 37.5691C19.4702 37.5727 19.4702 37.5763 19.4702 37.5797C19.4702 37.5888 19.4702 37.5979 19.4704 37.6068C19.4704 37.609 19.4704 37.6114 19.4704 37.6135C19.4704 37.6246 19.4707 37.6356 19.4707 37.6464C19.4707 37.6495 19.4707 37.6526 19.4707 37.6558C19.4707 37.6637 19.4709 37.6714 19.4709 37.679C19.4709 37.6826 19.4709 37.686 19.4709 37.6896C19.4709 37.6978 19.4712 37.7057 19.4712 37.7136C19.4712 37.7162 19.4712 37.7186 19.4712 37.7213C19.4714 37.7314 19.4714 37.7412 19.4716 37.751C19.4716 37.7532 19.4716 37.7554 19.4716 37.7578C19.4716 37.7652 19.4719 37.7726 19.4719 37.7798C19.4719 37.783 19.4719 37.7858 19.4721 37.7887C19.4721 37.795 19.4724 37.8012 19.4726 37.8072C19.4726 37.8101 19.4728 37.813 19.4728 37.8156C19.4731 37.824 19.4733 37.8322 19.4736 37.8398C19.5312 39.9187 19.5242 41.9983 19.5088 44.0777C19.506 44.4756 19.4791 44.8759 19.4738 45.2753C19.4738 45.2753 23.6433 45.2558 25.7275 45.2354C26.1165 45.2316 27.0429 45.2321 27.0429 45.2321Z" fill="#0094C7"/>
<path d="M19.5086 44.0779C19.5242 41.9988 19.5331 39.9204 19.4752 37.8413C19.4714 37.7045 19.4697 37.4547 19.4699 37.2893C19.1663 37.2963 19.0204 37.3099 18.809 37.3032C18.0715 37.3032 17.3438 37.2994 16.6046 37.326C15.8183 37.3543 15.0767 37.369 14.29 37.3738C13.8057 37.3767 13.318 37.3553 12.8337 37.3493C12.6465 37.3469 12.0165 37.3503 12.0165 37.3503C12.0165 37.3503 12.0153 37.4647 12.0153 37.4902C12.0153 38.3561 12.0071 39.2028 12.0074 40.069C12.0076 40.7057 12.0076 41.3427 12.0076 41.9794C12.0076 42.7114 12.0165 43.4441 12.0028 44.1763C11.9973 44.4672 11.9927 44.7821 11.9858 45.0725C11.9853 45.0948 11.9839 45.1651 11.9824 45.2791C14.4763 45.283 16.9799 45.2832 19.4738 45.2753C19.4793 44.8757 19.5057 44.4759 19.5086 44.0779Z" fill="#FD4256"/>
</svg>
