<svg width="48" height="48" viewBox="0 0 48 48" fill="none" xmlns="http://www.w3.org/2000/svg">
<path d="M22.2638 22.0476C22.2679 21.7843 22.2691 21.5203 22.2682 21.2582C22.2667 20.8629 22.2564 20.4681 22.2418 20.0733C21.9737 19.668 21.8743 19.464 21.5758 19.0593C21.3562 18.7615 21.0418 18.3677 20.8562 18.1968C20.6758 18.0305 20.4118 17.7842 20.065 17.5605C17.6453 15.9991 14.7245 15.1829 11.845 15.0189C11.5166 15.0002 11.1516 14.9585 10.8276 14.9791C10.6066 14.9933 10.5766 15.042 10.5797 15.2863C10.5924 16.284 10.5636 17.2409 10.8758 18.2083C11.2673 19.422 12.0583 20.4773 13.2034 21.0657C13.753 21.3482 14.305 21.6266 14.909 21.7797C16.0596 22.074 17.3664 22.0857 18.5479 22.1121C18.953 22.1213 19.3651 22.1361 19.77 22.1119C20.0141 22.097 22.0951 22.0159 22.2638 22.0476Z" fill="#008009"/>
<path d="M35.1461 14.8006C35.1475 14.6827 35.1214 14.6556 35.0076 14.6412C33.9449 14.5075 32.8361 14.6282 31.7842 14.7072C30.6953 14.789 29.6446 15.1186 28.6167 15.505C28.0951 15.701 27.6163 15.9509 27.175 16.2449C25.6231 17.2786 24.5299 18.8544 23.688 20.5469C23.5447 20.8351 23.5229 20.8896 23.4423 21.2165C23.4204 21.2767 23.3715 21.2645 23.3705 21.2117C23.3266 19.7878 23.3057 18.1598 23.3247 16.7237C23.1315 16.7434 22.9296 16.7594 22.7038 16.7698C22.5283 16.7731 22.3889 16.7784 22.1489 16.7791C22.1357 17.3093 22.1669 17.9837 22.1815 18.4894C22.2084 19.4122 22.2655 20.3342 22.2687 21.2578C22.2718 22.1803 22.2375 23.1139 22.2082 24.029C22.2015 24.2393 22.1945 24.45 22.1631 24.6581C22.1511 24.7368 22.0899 25.387 22.0483 25.5797C22.0483 25.5802 22.0481 25.5806 22.0481 25.5811C22.0486 25.5811 22.0488 25.5811 22.0493 25.5811C22.4981 25.5682 22.9426 25.5703 23.3914 25.5919C23.4005 25.3421 23.3662 24.6953 23.3623 24.4874C23.3559 24.1176 23.3626 23.7475 23.3458 23.3782C23.3251 23.0856 23.323 22.4897 23.3602 22.1606C23.3676 22.0951 23.3945 22.0642 23.4629 22.0685C23.6263 22.0766 23.959 22.0889 24.1534 22.0913C26.3088 22.1165 28.7057 21.8597 30.744 21.1954C33.2412 20.3815 35.1538 18.5004 35.1538 15.7529C35.1531 15.4354 35.1423 15.1176 35.1461 14.8006Z" fill="#72A11A"/>
<path d="M36.9271 30.1078C37.2468 30.1776 37.5693 30.2755 37.8468 30.4531C37.8993 30.4867 37.9538 30.4603 38.0064 30.4078C38.6798 29.7339 39.3904 29.0621 40.1155 28.4295C40.488 28.1045 40.8669 27.7872 41.2531 27.4788C41.6085 27.1949 41.9767 26.845 42.3878 26.6487C42.8097 26.4473 43.2412 26.2651 43.6905 26.1209C44.3025 25.9243 44.8987 25.8576 45.5028 26.1247C45.7363 26.2279 46.0058 26.3333 46.2153 26.4984C46.3598 26.3268 46.516 26.0182 46.5852 25.9123C47.0246 25.2382 46.7731 24.4913 46.0812 24.1001C44.7336 23.3386 43.4875 24.0725 42.4447 24.9451C42.1365 25.2031 41.8934 25.5281 41.5656 25.7705C41.249 26.0045 40.9603 26.2767 40.6663 26.5397C40.2362 26.9244 39.821 27.3259 39.3832 27.7015C38.95 28.0733 38.4986 28.4237 38.052 28.7794C37.7335 29.0328 37.4265 29.1946 37.0788 29.4101C36.8311 29.5635 36.467 29.7065 36.0609 29.9143C36.3535 29.9645 36.6381 30.0444 36.9271 30.1078Z" fill="#CA8461"/>
<path d="M36.2436 29.9493C36.2424 29.9491 36.2409 29.9488 36.2397 29.9486C36.2412 29.9488 36.2424 29.9491 36.2436 29.9493Z" fill="#CA8461"/>
<path d="M32.0074 29.8992C32.3671 29.9006 32.5723 29.8934 32.8303 29.8841C33.1776 29.8713 33.5246 29.8584 33.8719 29.8469C34.5569 29.8238 35.2464 29.802 35.9275 29.8937C35.9722 29.8997 36.0168 29.9066 36.061 29.9143C36.4673 29.7065 36.8309 29.5639 37.0786 29.4103C37.4263 29.1948 37.7333 29.033 38.0518 28.7796C38.4986 28.4241 38.9501 28.0735 39.383 27.7017C39.8208 27.3261 40.236 26.9246 40.6661 26.5399C40.9601 26.2769 41.2488 26.0047 41.5654 25.7707C41.7266 25.6514 41.8675 25.5127 42.0058 25.3713C42.1483 25.2254 42.288 25.0764 42.4445 24.9453C42.7025 24.7293 42.973 24.522 43.2542 24.3437C43.1875 24.1749 42.7601 24.0914 42.642 24.0713C42.3718 24.0254 42.0857 24.0413 41.8282 24.1164C41.5778 24.1896 41.3306 24.3432 41.117 24.4891C40.951 24.6182 40.7923 24.7819 40.7182 24.8702C40.6745 24.9206 40.6459 24.9314 40.5835 24.9213C40.489 24.9036 40.3142 24.8549 40.1083 24.857C39.6847 24.8645 39.3814 24.9583 39.1152 25.151C38.8538 25.3548 38.585 25.5669 38.3304 25.7748C38.1919 25.8878 38.0534 26.0009 37.915 26.1139C36.8309 26.9985 35.8339 27.9705 34.6054 28.6536C34.1318 28.9169 33.6521 29.1225 33.155 29.339C33.0523 29.3837 31.9723 29.8339 31.7482 29.8987C31.8739 29.8989 31.9623 29.899 32.0074 29.8992Z" fill="#CA8461"/>
<path d="M36.1581 29.9321C36.126 29.9258 36.0938 29.9198 36.0616 29.9143C36.0938 29.9198 36.126 29.9261 36.1581 29.9321Z" fill="#CA8461"/>
<path d="M15.3228 29.8711C15.9689 29.881 16.6169 29.8963 17.261 29.8834C18.1889 29.8647 19.116 29.8947 20.0434 29.8731C20.7823 29.856 21.5222 29.8635 22.2614 29.8707C24.7582 29.8949 30.3991 29.8968 31.7479 29.8987C31.6406 29.5783 31.1153 28.8118 30.9533 28.6169C29.7689 27.1037 28.1866 26.5805 27.2755 26.2757C26.4161 26.0038 25.5334 25.8118 24.6413 25.7019C23.7406 25.5862 22.8907 25.5557 22.0217 25.5819C20.2315 25.6606 17.9695 26.251 16.7441 27.1042C14.9148 28.2581 14.0832 29.4495 13.8113 29.8675C14.3153 29.868 14.819 29.8635 15.3228 29.8711Z" fill="#632F3C"/>
<path d="M22.2154 14.4626C22.2619 13.3198 22.3358 12.4478 22.5955 11.3719C22.494 11.2574 22.3942 11.1415 22.2898 11.0297C21.8731 10.583 21.3878 10.1366 20.8692 9.80377C20.0234 9.26089 19.0608 8.94289 18.1003 8.69161C17.875 8.63257 17.4334 8.39713 17.3957 8.76505C17.3712 9.05905 17.3854 9.18337 17.381 9.43177C17.3755 9.92689 17.382 10.4251 17.3765 10.9202C17.3693 11.5795 17.3722 12.1915 17.4528 12.8674C17.4756 13.0102 17.5903 13.855 17.9326 14.556C18.0523 14.7953 18.5186 15.4956 18.9842 15.8834C19.199 16.0459 19.4326 16.1825 19.6776 16.2936C20.3983 16.6205 21.3586 16.7971 22.1491 16.7791C22.1566 16.007 22.1839 15.2342 22.2154 14.4626Z" fill="#72A11A"/>
<path d="M23.8131 8.6844C24.0495 8.31048 24.3118 7.9524 24.5996 7.61376C25.0889 7.03824 25.6496 6.51864 26.2841 6.10608C27.1133 5.56704 28.0253 5.21424 29.0043 5.06928C29.2414 5.03424 29.4771 4.99872 29.718 4.99656C30.0068 4.99416 30.1853 5.03496 30.26 5.334C30.4904 6.25464 30.7354 7.16472 30.7565 8.12232C30.7776 9.0888 30.6605 10.0562 30.4517 10.9987C30.4496 11.0081 30.4476 11.0172 30.4455 11.0266C30.3603 11.4072 30.2304 11.7761 30.0898 12.1392C30.0456 12.2534 30 12.367 29.9547 12.4807C29.8018 12.8638 29.6369 13.2019 29.4293 13.5571C29.3285 13.7299 29.2275 13.9027 29.1178 14.0702C28.8843 14.4271 28.6119 14.7583 28.3073 15.0569C27.936 15.3912 27.5312 15.6394 27.0663 15.8446C26.6991 16.0066 26.3014 16.1172 25.9109 16.2516C25.2965 16.4364 24.6627 16.5516 24.0317 16.6366C23.593 16.6956 23.2088 16.7467 22.7033 16.7695C22.5279 16.7729 22.3892 16.7784 22.1489 16.7791C22.1564 16.0068 22.1837 15.2335 22.2152 14.4619C22.2653 13.2319 22.3469 12.3158 22.658 11.1218C22.9035 10.1796 23.2942 9.50496 23.8131 8.6844Z" fill="#008009"/>
<path d="M46.5718 27.5266C46.4179 28.1858 45.7054 28.8091 45.3264 29.2481C45.0382 29.5819 44.7403 29.9078 44.4449 30.2352C43.7772 30.9754 43.099 31.7062 42.3965 32.4134C40.98 33.8393 39.4594 35.1737 37.764 36.2604C37.1681 36.6422 36.5527 36.9926 35.9376 37.3426C34.3971 38.219 32.8728 39.1294 31.3469 40.0171C29.8855 40.8672 28.3419 41.6743 26.647 41.9148C23.694 42.3333 20.6103 41.2356 17.7629 40.6005C16.2715 40.2679 14.7766 39.9502 13.2754 39.6638C11.3115 39.2892 9.3365 38.9676 7.35002 38.7379C6.41546 38.6299 5.4749 38.5128 4.53338 38.484C3.78074 38.461 2.81666 38.4624 2.06642 38.3897C1.60706 38.3453 1.50314 38.3515 1.49522 38.0734C1.48178 37.6034 1.53866 36.9854 1.53842 36.515C1.53818 35.9645 1.5377 35.4139 1.53746 34.8634C1.53674 33.5225 1.55954 32.1739 1.52762 30.8354C1.52762 30.7282 1.51874 30.5726 1.51874 30.2952C1.51874 29.8505 1.6637 29.8699 1.89002 29.8615C2.31074 29.8615 3.06698 29.8618 3.10442 29.862C5.6525 29.862 6.94634 29.8721 9.49466 29.8668C10.0104 29.8658 10.5262 29.8644 11.0417 29.8632C11.9299 29.861 12.8179 29.8654 13.7062 29.8673C14.245 29.868 14.784 29.863 15.3228 29.8711C15.9689 29.881 16.6169 29.8963 17.2611 29.8834C18.1889 29.8646 19.116 29.8946 20.0434 29.873C20.7823 29.856 21.5223 29.8634 22.2615 29.8706C24.9907 29.8973 31.4775 29.897 32.0074 29.8992C32.3671 29.9006 32.5723 29.8934 32.8303 29.8841C33.1776 29.8714 33.5247 29.8584 33.8719 29.8469C34.5569 29.8238 35.2464 29.802 35.9275 29.8937C36.2679 29.9395 36.5945 30.0348 36.9271 30.1075C37.2468 30.1774 37.5694 30.2753 37.8468 30.4529C37.8994 30.4865 37.9539 30.4601 38.0064 30.4078C38.6799 29.7338 39.3905 29.0621 40.1155 28.4294C40.488 28.1045 40.867 27.7872 41.2531 27.4788C41.6086 27.1949 41.9767 26.845 42.3879 26.6486C42.8098 26.4473 43.2413 26.2651 43.6906 26.1209C44.3026 25.9243 44.8987 25.8576 45.5028 26.1247C45.8316 26.2702 46.2317 26.4187 46.4352 26.7336C46.6061 26.9976 46.633 27.265 46.5718 27.5266Z" fill="#FFAF87"/>
</svg>
